<svg width="62" height="61" viewBox="0 0 62 61" fill="none" xmlns="http://www.w3.org/2000/svg">
<ellipse cx="31" cy="30.5" rx="31" ry="30.5" fill="#001032"/>
<mask id="mask0_11_163" style="mask-type:alpha" maskUnits="userSpaceOnUse" x="0" y="0" width="62" height="61">
<ellipse cx="31" cy="30.5" rx="31" ry="30.5" fill="#001032"/>
</mask>
<g mask="url(#mask0_11_163)">
<g style="mix-blend-mode:color-dodge" opacity="0.16">
<mask id="path-3-inside-1_11_163" fill="white">
<path fill-rule="evenodd" clip-rule="evenodd" d="M-11 -5H72V-4H-11V-5ZM-11 0H72V1H-11V0ZM72 5H-11V6H72V5ZM-11 10H72V11H-11V10ZM72 15H-11V16H72V15ZM-11 20H72V21H-11V20ZM72 25H-11V26H72V25ZM-11 30H72V31H-11V30ZM72 35H-11V36H72V35ZM-11 40H72V41H-11V40ZM72 45H-11V46H72V45ZM-11 50H72V51H-11V50ZM72 55H-11V56H72V55ZM-11 60H72V61H-11V60ZM72 65H-11V66H72V65Z"/>
</mask>
<path fill-rule="evenodd" clip-rule="evenodd" d="M-11 -5H72V-4H-11V-5ZM-11 0H72V1H-11V0ZM72 5H-11V6H72V5ZM-11 10H72V11H-11V10ZM72 15H-11V16H72V15ZM-11 20H72V21H-11V20ZM72 25H-11V26H72V25ZM-11 30H72V31H-11V30ZM72 35H-11V36H72V35ZM-11 40H72V41H-11V40ZM72 45H-11V46H72V45ZM-11 50H72V51H-11V50ZM72 55H-11V56H72V55ZM-11 60H72V61H-11V60ZM72 65H-11V66H72V65Z" fill="url(#paint0_linear_11_163)"/>
<path d="M72 -5H73V-6H72V-5ZM-11 -5V-6H-12V-5H-11ZM72 -4V-3H73V-4H72ZM-11 -4H-12V-3H-11V-4ZM72 0H73V-1H72V0ZM-11 0V-1H-12V0H-11ZM72 1V2H73V1H72ZM-11 1H-12V2H-11V1ZM-11 5V4H-12V5H-11ZM72 5H73V4H72V5ZM-11 6H-12V7H-11V6ZM72 6V7H73V6H72ZM72 10H73V9H72V10ZM-11 10V9H-12V10H-11ZM72 11V12H73V11H72ZM-11 11H-12V12H-11V11ZM-11 15V14H-12V15H-11ZM72 15H73V14H72V15ZM-11 16H-12V17H-11V16ZM72 16V17H73V16H72ZM72 20H73V19H72V20ZM-11 20V19H-12V20H-11ZM72 21V22H73V21H72ZM-11 21H-12V22H-11V21ZM-11 25V24H-12V25H-11ZM72 25H73V24H72V25ZM-11 26H-12V27H-11V26ZM72 26V27H73V26H72ZM72 30H73V29H72V30ZM-11 30V29H-12V30H-11ZM72 31V32H73V31H72ZM-11 31H-12V32H-11V31ZM-11 35V34H-12V35H-11ZM72 35H73V34H72V35ZM-11 36H-12V37H-11V36ZM72 36V37H73V36H72ZM72 40H73V39H72V40ZM-11 40V39H-12V40H-11ZM72 41V42H73V41H72ZM-11 41H-12V42H-11V41ZM-11 45V44H-12V45H-11ZM72 45H73V44H72V45ZM-11 46H-12V47H-11V46ZM72 46V47H73V46H72ZM72 50H73V49H72V50ZM-11 50V49H-12V50H-11ZM72 51V52H73V51H72ZM-11 51H-12V52H-11V51ZM-11 55V54H-12V55H-11ZM72 55H73V54H72V55ZM-11 56H-12V57H-11V56ZM72 56V57H73V56H72ZM72 60H73V59H72V60ZM-11 60V59H-12V60H-11ZM72 61V62H73V61H72ZM-11 61H-12V62H-11V61ZM-11 65V64H-12V65H-11ZM72 65H73V64H72V65ZM-11 66H-12V67H-11V66ZM72 66V67H73V66H72ZM72 -6H-11V-4H72V-6ZM73 -4V-5H71V-4H73ZM-11 -3H72V-5H-11V-3ZM-12 -5V-4H-10V-5H-12ZM72 -1H-11V1H72V-1ZM73 1V0H71V1H73ZM-11 2H72V0H-11V2ZM-12 0V1H-10V0H-12ZM-11 6H72V4H-11V6ZM-10 6V5H-12V6H-10ZM72 5H-11V7H72V5ZM71 5V6H73V5H71ZM72 9H-11V11H72V9ZM73 11V10H71V11H73ZM-11 12H72V10H-11V12ZM-12 10V11H-10V10H-12ZM-11 16H72V14H-11V16ZM-10 16V15H-12V16H-10ZM72 15H-11V17H72V15ZM71 15V16H73V15H71ZM72 19H-11V21H72V19ZM73 21V20H71V21H73ZM-11 22H72V20H-11V22ZM-12 20V21H-10V20H-12ZM-11 26H72V24H-11V26ZM-10 26V25H-12V26H-10ZM72 25H-11V27H72V25ZM71 25V26H73V25H71ZM72 29H-11V31H72V29ZM73 31V30H71V31H73ZM-11 32H72V30H-11V32ZM-12 30V31H-10V30H-12ZM-11 36H72V34H-11V36ZM-10 36V35H-12V36H-10ZM72 35H-11V37H72V35ZM71 35V36H73V35H71ZM72 39H-11V41H72V39ZM73 41V40H71V41H73ZM-11 42H72V40H-11V42ZM-12 40V41H-10V40H-12ZM-11 46H72V44H-11V46ZM-10 46V45H-12V46H-10ZM72 45H-11V47H72V45ZM71 45V46H73V45H71ZM72 49H-11V51H72V49ZM73 51V50H71V51H73ZM-11 52H72V50H-11V52ZM-12 50V51H-10V50H-12ZM-11 56H72V54H-11V56ZM-10 56V55H-12V56H-10ZM72 55H-11V57H72V55ZM71 55V56H73V55H71ZM72 59H-11V61H72V59ZM73 61V60H71V61H73ZM-11 62H72V60H-11V62ZM-12 60V61H-10V60H-12ZM-11 66H72V64H-11V66ZM-10 66V65H-12V66H-10ZM72 65H-11V67H72V65ZM71 65V66H73V65H71Z" fill="url(#paint1_linear_11_163)" mask="url(#path-3-inside-1_11_163)"/>
</g>
</g>
<path d="M61.5 30.5C61.5 47.0609 47.8524 60.5 31 60.5C14.1476 60.5 0.5 47.0609 0.5 30.5C0.5 13.9391 14.1476 0.5 31 0.5C47.8524 0.5 61.5 13.9391 61.5 30.5Z" stroke="url(#paint2_linear_11_163)"/>
<defs>
<linearGradient id="paint0_linear_11_163" x1="72" y1="30.5" x2="-11" y2="30.5" gradientUnits="userSpaceOnUse">
<stop stop-color="white" stop-opacity="0.5"/>
<stop offset="0.495" stop-color="white" stop-opacity="0.2"/>
<stop offset="1" stop-color="white" stop-opacity="0.5"/>
</linearGradient>
<linearGradient id="paint1_linear_11_163" x1="30.5" y1="-11.6824" x2="30.5" y2="69.3412" gradientUnits="userSpaceOnUse">
<stop stop-color="#9CDEFF"/>
<stop offset="1" stop-color="#32D8FD"/>
</linearGradient>
<linearGradient id="paint2_linear_11_163" x1="31" y1="-5.74118" x2="31" y2="63.8706" gradientUnits="userSpaceOnUse">
<stop stop-color="#9CDEFF"/>
<stop offset="1" stop-color="#32D8FD"/>
</linearGradient>
</defs>
</svg>
