<svg width="331" height="177" viewBox="0 0 331 177" fill="none" xmlns="http://www.w3.org/2000/svg">
<mask id="path-1-outside-1_9_301" maskUnits="userSpaceOnUse" x="0" y="0" width="331" height="177" fill="black">
<rect fill="white" width="331" height="177"/>
<path fill-rule="evenodd" clip-rule="evenodd" d="M312.423 5L326 18.5772V119H202.997L171.956 172H19.5771L5 157.423V46.8736L20.8736 31H114L129.453 5H312.423Z"/>
</mask>
<path fill-rule="evenodd" clip-rule="evenodd" d="M312.423 5L326 18.5772V119H202.997L171.956 172H19.5771L5 157.423V46.8736L20.8736 31H114L129.453 5H312.423Z" fill="#001032"/>
<path d="M312.423 5L315.958 1.46447L314.494 0H312.423V5ZM326 18.5772H331V16.5061L329.536 15.0416L326 18.5772ZM326 119V124H331V119H326ZM202.997 119V114H200.131L198.683 116.473L202.997 119ZM171.956 172V177H174.822L176.271 174.527L171.956 172ZM19.5771 172L16.0416 175.536L17.5061 177H19.5771V172ZM5 157.423H0V159.494L1.46447 160.958L5 157.423ZM5 46.8736L1.46447 43.3381L0 44.8026V46.8736H5ZM20.8736 31V26H18.8026L17.3381 27.4645L20.8736 31ZM114 31V36H116.845L118.298 33.5546L114 31ZM129.453 5V0H126.608L125.155 2.44543L129.453 5ZM308.887 8.53553L322.464 22.1127L329.536 15.0416L315.958 1.46447L308.887 8.53553ZM321 18.5772V119H331V18.5772H321ZM326 114H202.997V124H326V114ZM198.683 116.473L167.642 169.473L176.271 174.527L207.312 121.527L198.683 116.473ZM171.956 167H19.5771V177H171.956V167ZM23.1127 168.464L8.53553 153.887L1.46447 160.958L16.0416 175.536L23.1127 168.464ZM10 157.423V46.8736H0V157.423H10ZM8.53553 50.4092L24.4092 34.5355L17.3381 27.4645L1.46447 43.3381L8.53553 50.4092ZM20.8736 36H114V26H20.8736V36ZM118.298 33.5546L133.751 7.55457L125.155 2.44543L109.702 28.4454L118.298 33.5546ZM129.453 10H312.423V0H129.453V10Z" fill="url(#paint0_linear_9_301)" mask="url(#path-1-outside-1_9_301)"/>
<mask id="mask0_9_301" style="mask-type:alpha" maskUnits="userSpaceOnUse" x="2" y="2" width="327" height="173">
<path fill-rule="evenodd" clip-rule="evenodd" d="M312.423 5L326 18.5772V119H202.997L171.956 172H19.5771L5 157.423V46.8736L20.8736 31H114L129.453 5H312.423Z" fill="#001032"/>
<path d="M312.423 5L314.191 3.23223L313.458 2.5H312.423V5ZM326 18.5772H328.5V17.5416L327.768 16.8094L326 18.5772ZM326 119V121.5H328.5V119H326ZM202.997 119V116.5H201.564L200.84 117.737L202.997 119ZM171.956 172V174.5H173.389L174.114 173.263L171.956 172ZM19.5771 172L17.8094 173.768L18.5416 174.5H19.5771V172ZM5 157.423H2.5V158.458L3.23223 159.191L5 157.423ZM5 46.8736L3.23223 45.1059L2.5 45.8381V46.8736H5ZM20.8736 31V28.5H19.8381L19.1059 29.2322L20.8736 31ZM114 31V33.5H115.422L116.149 32.2773L114 31ZM129.453 5V2.5H128.03L127.304 3.72272L129.453 5ZM310.655 6.76777L324.232 20.3449L327.768 16.8094L314.191 3.23223L310.655 6.76777ZM323.5 18.5772V119H328.5V18.5772H323.5ZM326 116.5H202.997V121.5H326V116.5ZM200.84 117.737L169.799 170.737L174.114 173.263L205.154 120.263L200.84 117.737ZM171.956 169.5H19.5771V174.5H171.956V169.5ZM21.3449 170.232L6.76777 155.655L3.23223 159.191L17.8094 173.768L21.3449 170.232ZM7.5 157.423V46.8736H2.5V157.423H7.5ZM6.76777 48.6414L22.6414 32.7678L19.1059 29.2322L3.23223 45.1059L6.76777 48.6414ZM20.8736 33.5H114V28.5H20.8736V33.5ZM116.149 32.2773L131.602 6.27728L127.304 3.72272L111.851 29.7227L116.149 32.2773ZM129.453 7.5H312.423V2.5H129.453V7.5Z" fill="url(#paint1_linear_9_301)"/>
</mask>
<g mask="url(#mask0_9_301)">
<g style="mix-blend-mode:color-dodge" opacity="0.16">
<mask id="path-5-inside-2_9_301" fill="white">
<path fill-rule="evenodd" clip-rule="evenodd" d="M357 9H-3V10H357V9ZM357 14H-3V15H357V14ZM-3 19H357V20H-3V19ZM357 24H-3V25H357V24ZM-3 29H357V30H-3V29ZM357 34H-3V35H357V34ZM-3 39H357V40H-3V39ZM357 44H-3V45H357V44ZM-3 49H357V50H-3V49ZM357 54H-3V55H357V54ZM-3 59H357V60H-3V59ZM357 64H-3V65H357V64ZM-3 69H357V70H-3V69ZM357 74H-3V75H357V74ZM-3 79H357V80H-3V79ZM357 84H-3V85H357V84ZM-3 89H357V90H-3V89ZM357 94H-3V95H357V94ZM-3 99H357V100H-3V99ZM357 104H-3V105H357V104ZM-3 109H357V110H-3V109ZM357 114H-3V115H357V114ZM-3 119H357V120H-3V119ZM357 124H-3V125H357V124ZM-3 129H357V130H-3V129ZM357 134H-3V135H357V134ZM-3 139H357V140H-3V139ZM357 144H-3V145H357V144ZM-3 149H357V150H-3V149ZM357 154H-3V155H357V154ZM-3 159H357V160H-3V159ZM357 164H-3V165H357V164ZM-3 169H357V170H-3V169ZM357 174H-3V175H357V174ZM-3 179H357V180H-3V179ZM357 184H-3V185H357V184Z"/>
</mask>
<path fill-rule="evenodd" clip-rule="evenodd" d="M357 9H-3V10H357V9ZM357 14H-3V15H357V14ZM-3 19H357V20H-3V19ZM357 24H-3V25H357V24ZM-3 29H357V30H-3V29ZM357 34H-3V35H357V34ZM-3 39H357V40H-3V39ZM357 44H-3V45H357V44ZM-3 49H357V50H-3V49ZM357 54H-3V55H357V54ZM-3 59H357V60H-3V59ZM357 64H-3V65H357V64ZM-3 69H357V70H-3V69ZM357 74H-3V75H357V74ZM-3 79H357V80H-3V79ZM357 84H-3V85H357V84ZM-3 89H357V90H-3V89ZM357 94H-3V95H357V94ZM-3 99H357V100H-3V99ZM357 104H-3V105H357V104ZM-3 109H357V110H-3V109ZM357 114H-3V115H357V114ZM-3 119H357V120H-3V119ZM357 124H-3V125H357V124ZM-3 129H357V130H-3V129ZM357 134H-3V135H357V134ZM-3 139H357V140H-3V139ZM357 144H-3V145H357V144ZM-3 149H357V150H-3V149ZM357 154H-3V155H357V154ZM-3 159H357V160H-3V159ZM357 164H-3V165H357V164ZM-3 169H357V170H-3V169ZM357 174H-3V175H357V174ZM-3 179H357V180H-3V179ZM357 184H-3V185H357V184Z" fill="url(#paint2_linear_9_301)"/>
<path d="M-3 9V8H-4V9H-3ZM357 9H358V8H357V9ZM-3 10H-4V11H-3V10ZM357 10V11H358V10H357ZM-3 14V13H-4V14H-3ZM357 14H358V13H357V14ZM-3 15H-4V16H-3V15ZM357 15V16H358V15H357ZM357 19H358V18H357V19ZM-3 19V18H-4V19H-3ZM357 20V21H358V20H357ZM-3 20H-4V21H-3V20ZM-3 24V23H-4V24H-3ZM357 24H358V23H357V24ZM-3 25H-4V26H-3V25ZM357 25V26H358V25H357ZM357 29H358V28H357V29ZM-3 29V28H-4V29H-3ZM357 30V31H358V30H357ZM-3 30H-4V31H-3V30ZM-3 34V33H-4V34H-3ZM357 34H358V33H357V34ZM-3 35H-4V36H-3V35ZM357 35V36H358V35H357ZM357 39H358V38H357V39ZM-3 39V38H-4V39H-3ZM357 40V41H358V40H357ZM-3 40H-4V41H-3V40ZM-3 44V43H-4V44H-3ZM357 44H358V43H357V44ZM-3 45H-4V46H-3V45ZM357 45V46H358V45H357ZM357 49H358V48H357V49ZM-3 49V48H-4V49H-3ZM357 50V51H358V50H357ZM-3 50H-4V51H-3V50ZM-3 54V53H-4V54H-3ZM357 54H358V53H357V54ZM-3 55H-4V56H-3V55ZM357 55V56H358V55H357ZM357 59H358V58H357V59ZM-3 59V58H-4V59H-3ZM357 60V61H358V60H357ZM-3 60H-4V61H-3V60ZM-3 64V63H-4V64H-3ZM357 64H358V63H357V64ZM-3 65H-4V66H-3V65ZM357 65V66H358V65H357ZM357 69H358V68H357V69ZM-3 69V68H-4V69H-3ZM357 70V71H358V70H357ZM-3 70H-4V71H-3V70ZM-3 74V73H-4V74H-3ZM357 74H358V73H357V74ZM-3 75H-4V76H-3V75ZM357 75V76H358V75H357ZM357 79H358V78H357V79ZM-3 79V78H-4V79H-3ZM357 80V81H358V80H357ZM-3 80H-4V81H-3V80ZM-3 84V83H-4V84H-3ZM357 84H358V83H357V84ZM-3 85H-4V86H-3V85ZM357 85V86H358V85H357ZM357 89H358V88H357V89ZM-3 89V88H-4V89H-3ZM357 90V91H358V90H357ZM-3 90H-4V91H-3V90ZM-3 94V93H-4V94H-3ZM357 94H358V93H357V94ZM-3 95H-4V96H-3V95ZM357 95V96H358V95H357ZM357 99H358V98H357V99ZM-3 99V98H-4V99H-3ZM357 100V101H358V100H357ZM-3 100H-4V101H-3V100ZM-3 104V103H-4V104H-3ZM357 104H358V103H357V104ZM-3 105H-4V106H-3V105ZM357 105V106H358V105H357ZM357 109H358V108H357V109ZM-3 109V108H-4V109H-3ZM357 110V111H358V110H357ZM-3 110H-4V111H-3V110ZM-3 114V113H-4V114H-3ZM357 114H358V113H357V114ZM-3 115H-4V116H-3V115ZM357 115V116H358V115H357ZM357 119H358V118H357V119ZM-3 119V118H-4V119H-3ZM357 120V121H358V120H357ZM-3 120H-4V121H-3V120ZM-3 124V123H-4V124H-3ZM357 124H358V123H357V124ZM-3 125H-4V126H-3V125ZM357 125V126H358V125H357ZM357 129H358V128H357V129ZM-3 129V128H-4V129H-3ZM357 130V131H358V130H357ZM-3 130H-4V131H-3V130ZM-3 134V133H-4V134H-3ZM357 134H358V133H357V134ZM-3 135H-4V136H-3V135ZM357 135V136H358V135H357ZM357 139H358V138H357V139ZM-3 139V138H-4V139H-3ZM357 140V141H358V140H357ZM-3 140H-4V141H-3V140ZM-3 144V143H-4V144H-3ZM357 144H358V143H357V144ZM-3 145H-4V146H-3V145ZM357 145V146H358V145H357ZM357 149H358V148H357V149ZM-3 149V148H-4V149H-3ZM357 150V151H358V150H357ZM-3 150H-4V151H-3V150ZM-3 154V153H-4V154H-3ZM357 154H358V153H357V154ZM-3 155H-4V156H-3V155ZM357 155V156H358V155H357ZM357 159H358V158H357V159ZM-3 159V158H-4V159H-3ZM357 160V161H358V160H357ZM-3 160H-4V161H-3V160ZM-3 164V163H-4V164H-3ZM357 164H358V163H357V164ZM-3 165H-4V166H-3V165ZM357 165V166H358V165H357ZM357 169H358V168H357V169ZM-3 169V168H-4V169H-3ZM357 170V171H358V170H357ZM-3 170H-4V171H-3V170ZM-3 174V173H-4V174H-3ZM357 174H358V173H357V174ZM-3 175H-4V176H-3V175ZM357 175V176H358V175H357ZM357 179H358V178H357V179ZM-3 179V178H-4V179H-3ZM357 180V181H358V180H357ZM-3 180H-4V181H-3V180ZM-3 184V183H-4V184H-3ZM357 184H358V183H357V184ZM-3 185H-4V186H-3V185ZM357 185V186H358V185H357ZM-3 10H357V8H-3V10ZM-2 10V9H-4V10H-2ZM357 9H-3V11H357V9ZM356 9V10H358V9H356ZM-3 15H357V13H-3V15ZM-2 15V14H-4V15H-2ZM357 14H-3V16H357V14ZM356 14V15H358V14H356ZM357 18H-3V20H357V18ZM358 20V19H356V20H358ZM-3 21H357V19H-3V21ZM-4 19V20H-2V19H-4ZM-3 25H357V23H-3V25ZM-2 25V24H-4V25H-2ZM357 24H-3V26H357V24ZM356 24V25H358V24H356ZM357 28H-3V30H357V28ZM358 30V29H356V30H358ZM-3 31H357V29H-3V31ZM-4 29V30H-2V29H-4ZM-3 35H357V33H-3V35ZM-2 35V34H-4V35H-2ZM357 34H-3V36H357V34ZM356 34V35H358V34H356ZM357 38H-3V40H357V38ZM358 40V39H356V40H358ZM-3 41H357V39H-3V41ZM-4 39V40H-2V39H-4ZM-3 45H357V43H-3V45ZM-2 45V44H-4V45H-2ZM357 44H-3V46H357V44ZM356 44V45H358V44H356ZM357 48H-3V50H357V48ZM358 50V49H356V50H358ZM-3 51H357V49H-3V51ZM-4 49V50H-2V49H-4ZM-3 55H357V53H-3V55ZM-2 55V54H-4V55H-2ZM357 54H-3V56H357V54ZM356 54V55H358V54H356ZM357 58H-3V60H357V58ZM358 60V59H356V60H358ZM-3 61H357V59H-3V61ZM-4 59V60H-2V59H-4ZM-3 65H357V63H-3V65ZM-2 65V64H-4V65H-2ZM357 64H-3V66H357V64ZM356 64V65H358V64H356ZM357 68H-3V70H357V68ZM358 70V69H356V70H358ZM-3 71H357V69H-3V71ZM-4 69V70H-2V69H-4ZM-3 75H357V73H-3V75ZM-2 75V74H-4V75H-2ZM357 74H-3V76H357V74ZM356 74V75H358V74H356ZM357 78H-3V80H357V78ZM358 80V79H356V80H358ZM-3 81H357V79H-3V81ZM-4 79V80H-2V79H-4ZM-3 85H357V83H-3V85ZM-2 85V84H-4V85H-2ZM357 84H-3V86H357V84ZM356 84V85H358V84H356ZM357 88H-3V90H357V88ZM358 90V89H356V90H358ZM-3 91H357V89H-3V91ZM-4 89V90H-2V89H-4ZM-3 95H357V93H-3V95ZM-2 95V94H-4V95H-2ZM357 94H-3V96H357V94ZM356 94V95H358V94H356ZM357 98H-3V100H357V98ZM358 100V99H356V100H358ZM-3 101H357V99H-3V101ZM-4 99V100H-2V99H-4ZM-3 105H357V103H-3V105ZM-2 105V104H-4V105H-2ZM357 104H-3V106H357V104ZM356 104V105H358V104H356ZM357 108H-3V110H357V108ZM358 110V109H356V110H358ZM-3 111H357V109H-3V111ZM-4 109V110H-2V109H-4ZM-3 115H357V113H-3V115ZM-2 115V114H-4V115H-2ZM357 114H-3V116H357V114ZM356 114V115H358V114H356ZM357 118H-3V120H357V118ZM358 120V119H356V120H358ZM-3 121H357V119H-3V121ZM-4 119V120H-2V119H-4ZM-3 125H357V123H-3V125ZM-2 125V124H-4V125H-2ZM357 124H-3V126H357V124ZM356 124V125H358V124H356ZM357 128H-3V130H357V128ZM358 130V129H356V130H358ZM-3 131H357V129H-3V131ZM-4 129V130H-2V129H-4ZM-3 135H357V133H-3V135ZM-2 135V134H-4V135H-2ZM357 134H-3V136H357V134ZM356 134V135H358V134H356ZM357 138H-3V140H357V138ZM358 140V139H356V140H358ZM-3 141H357V139H-3V141ZM-4 139V140H-2V139H-4ZM-3 145H357V143H-3V145ZM-2 145V144H-4V145H-2ZM357 144H-3V146H357V144ZM356 144V145H358V144H356ZM357 148H-3V150H357V148ZM358 150V149H356V150H358ZM-3 151H357V149H-3V151ZM-4 149V150H-2V149H-4ZM-3 155H357V153H-3V155ZM-2 155V154H-4V155H-2ZM357 154H-3V156H357V154ZM356 154V155H358V154H356ZM357 158H-3V160H357V158ZM358 160V159H356V160H358ZM-3 161H357V159H-3V161ZM-4 159V160H-2V159H-4ZM-3 165H357V163H-3V165ZM-2 165V164H-4V165H-2ZM357 164H-3V166H357V164ZM356 164V165H358V164H356ZM357 168H-3V170H357V168ZM358 170V169H356V170H358ZM-3 171H357V169H-3V171ZM-4 169V170H-2V169H-4ZM-3 175H357V173H-3V175ZM-2 175V174H-4V175H-2ZM357 174H-3V176H357V174ZM356 174V175H358V174H356ZM357 178H-3V180H357V178ZM358 180V179H356V180H358ZM-3 181H357V179H-3V181ZM-4 179V180H-2V179H-4ZM-3 185H357V183H-3V185ZM-2 185V184H-4V185H-2ZM357 184H-3V186H357V184ZM356 184V185H358V184H356Z" fill="url(#paint3_linear_9_301)" mask="url(#path-5-inside-2_9_301)"/>
</g>
</g>
<mask id="path-7-inside-3_9_301" fill="white">
<path fill-rule="evenodd" clip-rule="evenodd" d="M70 5H63L53 22H60L70 5ZM75 5H82L72 22H65L75 5ZM94 5H87L77 22H84L94 5ZM99 5H106L96 22H89L99 5ZM110.5 5H117.5L107.5 22H100.5L110.5 5Z"/>
</mask>
<path fill-rule="evenodd" clip-rule="evenodd" d="M70 5H63L53 22H60L70 5ZM75 5H82L72 22H65L75 5ZM94 5H87L77 22H84L94 5ZM99 5H106L96 22H89L99 5ZM110.5 5H117.5L107.5 22H100.5L110.5 5Z" fill="url(#paint4_linear_9_301)"/>
<path d="M63 5V4H62.4281L62.1381 4.49298L63 5ZM70 5L70.8619 5.50702L71.7484 4H70V5ZM53 22L52.1381 21.493L51.2516 23H53V22ZM60 22V23H60.5719L60.8619 22.507L60 22ZM82 5L82.8619 5.50702L83.7484 4H82V5ZM75 5V4H74.4281L74.1381 4.49298L75 5ZM72 22V23H72.5719L72.8619 22.507L72 22ZM65 22L64.1381 21.493L63.2516 23H65V22ZM87 5V4H86.4281L86.1381 4.49298L87 5ZM94 5L94.8619 5.50702L95.7484 4H94V5ZM77 22L76.1381 21.493L75.2516 23H77V22ZM84 22V23H84.5719L84.8619 22.507L84 22ZM106 5L106.862 5.50702L107.748 4H106V5ZM99 5V4H98.4281L98.1381 4.49298L99 5ZM96 22V23H96.5719L96.8619 22.507L96 22ZM89 22L88.1381 21.493L87.2516 23H89V22ZM117.5 5L118.362 5.50702L119.248 4H117.5V5ZM110.5 5V4H109.928L109.638 4.49298L110.5 5ZM107.5 22V23H108.072L108.362 22.507L107.5 22ZM100.5 22L99.6381 21.493L98.7516 23H100.5V22ZM63 6H70V4H63V6ZM53.8619 22.507L63.8619 5.50702L62.1381 4.49298L52.1381 21.493L53.8619 22.507ZM60 21H53V23H60V21ZM69.1381 4.49298L59.1381 21.493L60.8619 22.507L70.8619 5.50702L69.1381 4.49298ZM82 4H75V6H82V4ZM72.8619 22.507L82.8619 5.50702L81.1381 4.49298L71.1381 21.493L72.8619 22.507ZM65 23H72V21H65V23ZM74.1381 4.49298L64.1381 21.493L65.8619 22.507L75.8619 5.50702L74.1381 4.49298ZM87 6H94V4H87V6ZM77.8619 22.507L87.8619 5.50702L86.1381 4.49298L76.1381 21.493L77.8619 22.507ZM84 21H77V23H84V21ZM93.1381 4.49298L83.1381 21.493L84.8619 22.507L94.8619 5.50702L93.1381 4.49298ZM106 4H99V6H106V4ZM96.8619 22.507L106.862 5.50702L105.138 4.49298L95.1381 21.493L96.8619 22.507ZM89 23H96V21H89V23ZM98.1381 4.49298L88.1381 21.493L89.8619 22.507L99.8619 5.50702L98.1381 4.49298ZM117.5 4H110.5V6H117.5V4ZM108.362 22.507L118.362 5.50702L116.638 4.49298L106.638 21.493L108.362 22.507ZM100.5 23H107.5V21H100.5V23ZM109.638 4.49298L99.6381 21.493L101.362 22.507L111.362 5.50702L109.638 4.49298Z" fill="url(#paint5_linear_9_301)" mask="url(#path-7-inside-3_9_301)"/>
<defs>
<linearGradient id="paint0_linear_9_301" x1="165.5" y1="-10.7176" x2="165.5" y2="179.859" gradientUnits="userSpaceOnUse">
<stop stop-color="#9CDEFF"/>
<stop offset="1" stop-color="#32D8FD"/>
</linearGradient>
<linearGradient id="paint1_linear_9_301" x1="165.5" y1="-10.7176" x2="165.5" y2="179.859" gradientUnits="userSpaceOnUse">
<stop stop-color="#9CDEFF"/>
<stop offset="1" stop-color="#32D8FD"/>
</linearGradient>
<linearGradient id="paint2_linear_9_301" x1="357" y1="97" x2="-3" y2="97" gradientUnits="userSpaceOnUse">
<stop stop-color="white" stop-opacity="0.5"/>
<stop offset="0.495" stop-color="white" stop-opacity="0.2"/>
<stop offset="1" stop-color="white" stop-opacity="0.5"/>
</linearGradient>
<linearGradient id="paint3_linear_9_301" x1="177" y1="-7.56471" x2="177" y2="193.282" gradientUnits="userSpaceOnUse">
<stop stop-color="#9CDEFF"/>
<stop offset="1" stop-color="#32D8FD"/>
</linearGradient>
<linearGradient id="paint4_linear_9_301" x1="85.25" y1="3.4" x2="85.25" y2="22.8" gradientUnits="userSpaceOnUse">
<stop stop-color="#9CDEFF"/>
<stop offset="1" stop-color="#32D8FD"/>
</linearGradient>
<linearGradient id="paint5_linear_9_301" x1="85.25" y1="3.4" x2="85.25" y2="22.8" gradientUnits="userSpaceOnUse">
<stop stop-color="#9CDEFF"/>
<stop offset="1" stop-color="#32D8FD"/>
</linearGradient>
</defs>
</svg>
