<svg width="306" height="434" viewBox="0 0 306 434" fill="none" xmlns="http://www.w3.org/2000/svg">
<mask id="path-1-inside-1_9_840" fill="white">
<path fill-rule="evenodd" clip-rule="evenodd" d="M0 434V12.461L12.461 0H306V422.398L294.398 434H0Z"/>
</mask>
<path fill-rule="evenodd" clip-rule="evenodd" d="M0 434V12.461L12.461 0H306V422.398L294.398 434H0Z" fill="#170024" fill-opacity="0.58"/>
<path d="M0 12.461L-0.707107 11.7539L-1 12.0468V12.461H0ZM0 434H-1V435H0V434ZM12.461 0V-1H12.0468L11.7539 -0.707107L12.461 0ZM306 0H307V-1H306V0ZM306 422.398L306.707 423.105L307 422.812V422.398H306ZM294.398 434V435H294.812L295.105 434.707L294.398 434ZM-1 12.461V434H1V12.461H-1ZM11.7539 -0.707107L-0.707107 11.7539L0.707107 13.1681L13.1681 0.707107L11.7539 -0.707107ZM306 -1H12.461V1H306V-1ZM307 422.398V0H305V422.398H307ZM295.105 434.707L306.707 423.105L305.293 421.691L293.691 433.293L295.105 434.707ZM0 435H294.398V433H0V435Z" fill="#FF93FD" mask="url(#path-1-inside-1_9_840)"/>
<mask id="path-3-inside-2_9_840" fill="white">
<path d="M4 412H22V430H4V412Z"/>
</mask>
<path d="M4 430H1V433H4V430ZM22 427H4V433H22V427ZM7 430V412H1V430H7Z" fill="#FF00E6" mask="url(#path-3-inside-2_9_840)"/>
<mask id="path-5-inside-3_9_840" fill="white">
<path d="M302 22L284 22L284 4L302 4L302 22Z"/>
</mask>
<path d="M302 4L305 4L305 1L302 1L302 4ZM284 7L302 7L302 1L284 0.999998L284 7ZM299 4L299 22L305 22L305 4L299 4Z" fill="#FF00E6" mask="url(#path-5-inside-3_9_840)"/>
</svg>
