<svg width="306" height="106" viewBox="0 0 306 106" fill="none" xmlns="http://www.w3.org/2000/svg">
<mask id="path-1-inside-1_11_96" fill="white">
<path fill-rule="evenodd" clip-rule="evenodd" d="M0 106V12.461L12.461 0H306V94.3977L294.398 106H0Z"/>
</mask>
<path fill-rule="evenodd" clip-rule="evenodd" d="M0 106V12.461L12.461 0H306V94.3977L294.398 106H0Z" fill="#170024" fill-opacity="0.58"/>
<path d="M0 12.461L-0.707107 11.7539L-1 12.0468V12.461H0ZM0 106H-1V107H0V106ZM12.461 0V-1H12.0468L11.7539 -0.707107L12.461 0ZM306 0H307V-1H306V0ZM306 94.3977L306.707 95.1048L307 94.8119V94.3977H306ZM294.398 106V107H294.812L295.105 106.707L294.398 106ZM-1 12.461V106H1V12.461H-1ZM11.7539 -0.707107L-0.707107 11.7539L0.707107 13.1681L13.1681 0.707107L11.7539 -0.707107ZM306 -1H12.461V1H306V-1ZM307 94.3977V0H305V94.3977H307ZM295.105 106.707L306.707 95.1048L305.293 93.6906L293.691 105.293L295.105 106.707ZM0 107H294.398V105H0V107Z" fill="#FF93FD" mask="url(#path-1-inside-1_11_96)"/>
<mask id="path-3-inside-2_11_96" fill="white">
<path d="M4 84H22V102H4V84Z"/>
</mask>
<path d="M4 102H1V105H4V102ZM22 99H4V105H22V99ZM7 102V84H1V102H7Z" fill="#FF00E6" mask="url(#path-3-inside-2_11_96)"/>
<mask id="path-5-inside-3_11_96" fill="white">
<path d="M302 22L284 22L284 4L302 4L302 22Z"/>
</mask>
<path d="M302 4L305 4L305 1L302 1L302 4ZM284 7L302 7L302 1L284 0.999998L284 7ZM299 4L299 22L305 22L305 4L299 4Z" fill="#FF00E6" mask="url(#path-5-inside-3_11_96)"/>
</svg>
