<svg width="331" height="292" viewBox="0 0 331 292" fill="none" xmlns="http://www.w3.org/2000/svg">
<mask id="path-1-outside-1_11_1200" maskUnits="userSpaceOnUse" x="0" y="0" width="331" height="292" fill="black">
<rect fill="white" width="331" height="292"/>
<path fill-rule="evenodd" clip-rule="evenodd" d="M312.423 5L326 18.5772V262H202.997L188.355 287H26.5771L5 265.423V46.8736L20.8736 31H114L129.453 5H312.423Z"/>
</mask>
<path fill-rule="evenodd" clip-rule="evenodd" d="M312.423 5L326 18.5772V262H202.997L188.355 287H26.5771L5 265.423V46.8736L20.8736 31H114L129.453 5H312.423Z" fill="#001032"/>
<path d="M312.423 5L315.958 1.46447L314.494 0H312.423V5ZM326 18.5772H331V16.5061L329.536 15.0416L326 18.5772ZM326 262V267H331V262H326ZM202.997 262V257H200.131L198.683 259.473L202.997 262ZM188.355 287V292H191.221L192.67 289.527L188.355 287ZM26.5771 287L23.0416 290.536L24.5061 292H26.5771V287ZM5 265.423H0V267.494L1.46447 268.958L5 265.423ZM5 46.8736L1.46447 43.3381L0 44.8026V46.8736H5ZM20.8736 31V26H18.8026L17.3381 27.4645L20.8736 31ZM114 31V36H116.845L118.298 33.5546L114 31ZM129.453 5V0H126.608L125.155 2.44543L129.453 5ZM308.887 8.53553L322.464 22.1127L329.536 15.0416L315.958 1.46447L308.887 8.53553ZM321 18.5772V262H331V18.5772H321ZM326 257H202.997V267H326V257ZM198.683 259.473L184.041 284.473L192.67 289.527L207.312 264.527L198.683 259.473ZM188.355 282H26.5771V292H188.355V282ZM30.1127 283.464L8.53553 261.887L1.46447 268.958L23.0416 290.536L30.1127 283.464ZM10 265.423V46.8736H0V265.423H10ZM8.53553 50.4092L24.4092 34.5355L17.3381 27.4645L1.46447 43.3381L8.53553 50.4092ZM20.8736 36H114V26H20.8736V36ZM118.298 33.5546L133.751 7.55457L125.155 2.44543L109.702 28.4454L118.298 33.5546ZM129.453 10H312.423V0H129.453V10Z" fill="url(#paint0_linear_11_1200)" mask="url(#path-1-outside-1_11_1200)"/>
<mask id="mask0_11_1200" style="mask-type:alpha" maskUnits="userSpaceOnUse" x="2" y="2" width="327" height="288">
<path fill-rule="evenodd" clip-rule="evenodd" d="M312.423 5L326 18.5772V266H202.997L190.698 287H26.5771L5 265.423V46.8736L20.8736 31H114L129.453 5H312.423Z" fill="#001032"/>
<path d="M312.423 5L314.191 3.23223L313.458 2.5H312.423V5ZM326 18.5772H328.5V17.5416L327.768 16.8094L326 18.5772ZM326 266V268.5H328.5V266H326ZM202.997 266V263.5H201.564L200.84 264.737L202.997 266ZM190.698 287V289.5H192.131L192.855 288.263L190.698 287ZM26.5771 287L24.8094 288.768L25.5416 289.5H26.5771V287ZM5 265.423H2.5V266.458L3.23223 267.191L5 265.423ZM5 46.8736L3.23223 45.1059L2.5 45.8381V46.8736H5ZM20.8736 31V28.5H19.8381L19.1059 29.2322L20.8736 31ZM114 31V33.5H115.422L116.149 32.2773L114 31ZM129.453 5V2.5H128.03L127.304 3.72272L129.453 5ZM310.655 6.76777L324.232 20.3449L327.768 16.8094L314.191 3.23223L310.655 6.76777ZM323.5 18.5772V266H328.5V18.5772H323.5ZM326 263.5H202.997V268.5H326V263.5ZM200.84 264.737L188.541 285.737L192.855 288.263L205.154 267.263L200.84 264.737ZM190.698 284.5H26.5771V289.5H190.698V284.5ZM28.3449 285.232L6.76777 263.655L3.23223 267.191L24.8094 288.768L28.3449 285.232ZM7.5 265.423V46.8736H2.5V265.423H7.5ZM6.76777 48.6414L22.6414 32.7678L19.1059 29.2322L3.23223 45.1059L6.76777 48.6414ZM20.8736 33.5H114V28.5H20.8736V33.5ZM116.149 32.2773L131.602 6.27728L127.304 3.72272L111.851 29.7227L116.149 32.2773ZM129.453 7.5H312.423V2.5H129.453V7.5Z" fill="url(#paint1_linear_11_1200)"/>
</mask>
<g mask="url(#mask0_11_1200)">
<g style="mix-blend-mode:color-dodge" opacity="0.16">
<mask id="path-5-inside-2_11_1200" fill="white">
<path fill-rule="evenodd" clip-rule="evenodd" d="M461.318 9H-107.318V10.5795H461.318V9ZM461.318 16.8977H-107.318V18.4773H461.318V16.8977ZM-107.318 24.7955H461.318V26.375H-107.318V24.7955ZM461.318 32.6932H-107.318V34.2727H461.318V32.6932ZM-107.318 40.5909H461.318V42.1705H-107.318V40.5909ZM461.318 48.4886H-107.318V50.0682H461.318V48.4886ZM-107.318 56.3864H461.318V57.9659H-107.318V56.3864ZM461.318 64.2841H-107.318V65.8636H461.318V64.2841ZM-107.318 72.1818H461.318V73.7614H-107.318V72.1818ZM461.318 80.0795H-107.318V81.6591H461.318V80.0795ZM-107.318 87.9773H461.318V89.5568H-107.318V87.9773ZM461.318 95.875H-107.318V97.4545H461.318V95.875ZM-107.318 103.773H461.318V105.352H-107.318V103.773ZM461.318 111.67H-107.318V113.25H461.318V111.67ZM-107.318 119.568H461.318V121.148H-107.318V119.568ZM461.318 127.466H-107.318V129.045H461.318V127.466ZM-107.318 135.364H461.318V136.943H-107.318V135.364ZM461.318 143.261H-107.318V144.841H461.318V143.261ZM-107.318 151.159H461.318V152.739H-107.318V151.159ZM461.318 159.057H-107.318V160.636H461.318V159.057ZM-107.318 166.955H461.318V168.534H-107.318V166.955ZM461.318 174.852H-107.318V176.432H461.318V174.852ZM-107.318 182.75H461.318V184.33H-107.318V182.75ZM461.318 190.648H-107.318V192.227H461.318V190.648ZM-107.318 198.545H461.318V200.125H-107.318V198.545ZM461.318 206.443H-107.318V208.023H461.318V206.443ZM-107.318 214.341H461.318V215.92H-107.318V214.341ZM461.318 222.239H-107.318V223.818H461.318V222.239ZM-107.318 230.136H461.318V231.716H-107.318V230.136ZM461.318 238.034H-107.318V239.614H461.318V238.034ZM-107.318 245.932H461.318V247.511H-107.318V245.932ZM461.318 253.83H-107.318V255.409H461.318V253.83ZM-107.318 261.727H461.318V263.307H-107.318V261.727ZM461.318 269.625H-107.318V271.205H461.318V269.625ZM-107.318 277.523H461.318V279.102H-107.318V277.523ZM461.318 285.42H-107.318V287H461.318V285.42Z"/>
</mask>
<path fill-rule="evenodd" clip-rule="evenodd" d="M461.318 9H-107.318V10.5795H461.318V9ZM461.318 16.8977H-107.318V18.4773H461.318V16.8977ZM-107.318 24.7955H461.318V26.375H-107.318V24.7955ZM461.318 32.6932H-107.318V34.2727H461.318V32.6932ZM-107.318 40.5909H461.318V42.1705H-107.318V40.5909ZM461.318 48.4886H-107.318V50.0682H461.318V48.4886ZM-107.318 56.3864H461.318V57.9659H-107.318V56.3864ZM461.318 64.2841H-107.318V65.8636H461.318V64.2841ZM-107.318 72.1818H461.318V73.7614H-107.318V72.1818ZM461.318 80.0795H-107.318V81.6591H461.318V80.0795ZM-107.318 87.9773H461.318V89.5568H-107.318V87.9773ZM461.318 95.875H-107.318V97.4545H461.318V95.875ZM-107.318 103.773H461.318V105.352H-107.318V103.773ZM461.318 111.67H-107.318V113.25H461.318V111.67ZM-107.318 119.568H461.318V121.148H-107.318V119.568ZM461.318 127.466H-107.318V129.045H461.318V127.466ZM-107.318 135.364H461.318V136.943H-107.318V135.364ZM461.318 143.261H-107.318V144.841H461.318V143.261ZM-107.318 151.159H461.318V152.739H-107.318V151.159ZM461.318 159.057H-107.318V160.636H461.318V159.057ZM-107.318 166.955H461.318V168.534H-107.318V166.955ZM461.318 174.852H-107.318V176.432H461.318V174.852ZM-107.318 182.75H461.318V184.33H-107.318V182.75ZM461.318 190.648H-107.318V192.227H461.318V190.648ZM-107.318 198.545H461.318V200.125H-107.318V198.545ZM461.318 206.443H-107.318V208.023H461.318V206.443ZM-107.318 214.341H461.318V215.92H-107.318V214.341ZM461.318 222.239H-107.318V223.818H461.318V222.239ZM-107.318 230.136H461.318V231.716H-107.318V230.136ZM461.318 238.034H-107.318V239.614H461.318V238.034ZM-107.318 245.932H461.318V247.511H-107.318V245.932ZM461.318 253.83H-107.318V255.409H461.318V253.83ZM-107.318 261.727H461.318V263.307H-107.318V261.727ZM461.318 269.625H-107.318V271.205H461.318V269.625ZM-107.318 277.523H461.318V279.102H-107.318V277.523ZM461.318 285.42H-107.318V287H461.318V285.42Z" fill="url(#paint2_linear_11_1200)"/>
<path d="M-107.318 9V8H-108.318V9H-107.318ZM461.318 9H462.318V8H461.318V9ZM-107.318 10.5795H-108.318V11.5795H-107.318V10.5795ZM461.318 10.5795V11.5795H462.318V10.5795H461.318ZM-107.318 16.8977V15.8977H-108.318V16.8977H-107.318ZM461.318 16.8977H462.318V15.8977H461.318V16.8977ZM-107.318 18.4773H-108.318V19.4773H-107.318V18.4773ZM461.318 18.4773V19.4773H462.318V18.4773H461.318ZM461.318 24.7955H462.318V23.7955H461.318V24.7955ZM-107.318 24.7955V23.7955H-108.318V24.7955H-107.318ZM461.318 26.375V27.375H462.318V26.375H461.318ZM-107.318 26.375H-108.318V27.375H-107.318V26.375ZM-107.318 32.6932V31.6932H-108.318V32.6932H-107.318ZM461.318 32.6932H462.318V31.6932H461.318V32.6932ZM-107.318 34.2727H-108.318V35.2727H-107.318V34.2727ZM461.318 34.2727V35.2727H462.318V34.2727H461.318ZM461.318 40.5909H462.318V39.5909H461.318V40.5909ZM-107.318 40.5909V39.5909H-108.318V40.5909H-107.318ZM461.318 42.1705V43.1705H462.318V42.1705H461.318ZM-107.318 42.1705H-108.318V43.1705H-107.318V42.1705ZM-107.318 48.4886V47.4886H-108.318V48.4886H-107.318ZM461.318 48.4886H462.318V47.4886H461.318V48.4886ZM-107.318 50.0682H-108.318V51.0682H-107.318V50.0682ZM461.318 50.0682V51.0682H462.318V50.0682H461.318ZM461.318 56.3864H462.318V55.3864H461.318V56.3864ZM-107.318 56.3864V55.3864H-108.318V56.3864H-107.318ZM461.318 57.9659V58.9659H462.318V57.9659H461.318ZM-107.318 57.9659H-108.318V58.9659H-107.318V57.9659ZM-107.318 64.2841V63.2841H-108.318V64.2841H-107.318ZM461.318 64.2841H462.318V63.2841H461.318V64.2841ZM-107.318 65.8636H-108.318V66.8636H-107.318V65.8636ZM461.318 65.8636V66.8636H462.318V65.8636H461.318ZM461.318 72.1818H462.318V71.1818H461.318V72.1818ZM-107.318 72.1818V71.1818H-108.318V72.1818H-107.318ZM461.318 73.7614V74.7614H462.318V73.7614H461.318ZM-107.318 73.7614H-108.318V74.7614H-107.318V73.7614ZM-107.318 80.0795V79.0795H-108.318V80.0795H-107.318ZM461.318 80.0795H462.318V79.0795H461.318V80.0795ZM-107.318 81.6591H-108.318V82.6591H-107.318V81.6591ZM461.318 81.6591V82.6591H462.318V81.6591H461.318ZM461.318 87.9773H462.318V86.9773H461.318V87.9773ZM-107.318 87.9773V86.9773H-108.318V87.9773H-107.318ZM461.318 89.5568V90.5568H462.318V89.5568H461.318ZM-107.318 89.5568H-108.318V90.5568H-107.318V89.5568ZM-107.318 95.875V94.875H-108.318V95.875H-107.318ZM461.318 95.875H462.318V94.875H461.318V95.875ZM-107.318 97.4545H-108.318V98.4545H-107.318V97.4545ZM461.318 97.4545V98.4545H462.318V97.4545H461.318ZM461.318 103.773H462.318V102.773H461.318V103.773ZM-107.318 103.773V102.773H-108.318V103.773H-107.318ZM461.318 105.352V106.352H462.318V105.352H461.318ZM-107.318 105.352H-108.318V106.352H-107.318V105.352ZM-107.318 111.67V110.67H-108.318V111.67H-107.318ZM461.318 111.67H462.318V110.67H461.318V111.67ZM-107.318 113.25H-108.318V114.25H-107.318V113.25ZM461.318 113.25V114.25H462.318V113.25H461.318ZM461.318 119.568H462.318V118.568H461.318V119.568ZM-107.318 119.568V118.568H-108.318V119.568H-107.318ZM461.318 121.148V122.148H462.318V121.148H461.318ZM-107.318 121.148H-108.318V122.148H-107.318V121.148ZM-107.318 127.466V126.466H-108.318V127.466H-107.318ZM461.318 127.466H462.318V126.466H461.318V127.466ZM-107.318 129.045H-108.318V130.045H-107.318V129.045ZM461.318 129.045V130.045H462.318V129.045H461.318ZM461.318 135.364H462.318V134.364H461.318V135.364ZM-107.318 135.364V134.364H-108.318V135.364H-107.318ZM461.318 136.943V137.943H462.318V136.943H461.318ZM-107.318 136.943H-108.318V137.943H-107.318V136.943ZM-107.318 143.261V142.261H-108.318V143.261H-107.318ZM461.318 143.261H462.318V142.261H461.318V143.261ZM-107.318 144.841H-108.318V145.841H-107.318V144.841ZM461.318 144.841V145.841H462.318V144.841H461.318ZM461.318 151.159H462.318V150.159H461.318V151.159ZM-107.318 151.159V150.159H-108.318V151.159H-107.318ZM461.318 152.739V153.739H462.318V152.739H461.318ZM-107.318 152.739H-108.318V153.739H-107.318V152.739ZM-107.318 159.057V158.057H-108.318V159.057H-107.318ZM461.318 159.057H462.318V158.057H461.318V159.057ZM-107.318 160.636H-108.318V161.636H-107.318V160.636ZM461.318 160.636V161.636H462.318V160.636H461.318ZM461.318 166.955H462.318V165.955H461.318V166.955ZM-107.318 166.955V165.955H-108.318V166.955H-107.318ZM461.318 168.534V169.534H462.318V168.534H461.318ZM-107.318 168.534H-108.318V169.534H-107.318V168.534ZM-107.318 174.852V173.852H-108.318V174.852H-107.318ZM461.318 174.852H462.318V173.852H461.318V174.852ZM-107.318 176.432H-108.318V177.432H-107.318V176.432ZM461.318 176.432V177.432H462.318V176.432H461.318ZM461.318 182.75H462.318V181.75H461.318V182.75ZM-107.318 182.75V181.75H-108.318V182.75H-107.318ZM461.318 184.33V185.33H462.318V184.33H461.318ZM-107.318 184.33H-108.318V185.33H-107.318V184.33ZM-107.318 190.648V189.648H-108.318V190.648H-107.318ZM461.318 190.648H462.318V189.648H461.318V190.648ZM-107.318 192.227H-108.318V193.227H-107.318V192.227ZM461.318 192.227V193.227H462.318V192.227H461.318ZM461.318 198.545H462.318V197.545H461.318V198.545ZM-107.318 198.545V197.545H-108.318V198.545H-107.318ZM461.318 200.125V201.125H462.318V200.125H461.318ZM-107.318 200.125H-108.318V201.125H-107.318V200.125ZM-107.318 206.443V205.443H-108.318V206.443H-107.318ZM461.318 206.443H462.318V205.443H461.318V206.443ZM-107.318 208.023H-108.318V209.023H-107.318V208.023ZM461.318 208.023V209.023H462.318V208.023H461.318ZM461.318 214.341H462.318V213.341H461.318V214.341ZM-107.318 214.341V213.341H-108.318V214.341H-107.318ZM461.318 215.92V216.92H462.318V215.92H461.318ZM-107.318 215.92H-108.318V216.92H-107.318V215.92ZM-107.318 222.239V221.239H-108.318V222.239H-107.318ZM461.318 222.239H462.318V221.239H461.318V222.239ZM-107.318 223.818H-108.318V224.818H-107.318V223.818ZM461.318 223.818V224.818H462.318V223.818H461.318ZM461.318 230.136H462.318V229.136H461.318V230.136ZM-107.318 230.136V229.136H-108.318V230.136H-107.318ZM461.318 231.716V232.716H462.318V231.716H461.318ZM-107.318 231.716H-108.318V232.716H-107.318V231.716ZM-107.318 238.034V237.034H-108.318V238.034H-107.318ZM461.318 238.034H462.318V237.034H461.318V238.034ZM-107.318 239.614H-108.318V240.614H-107.318V239.614ZM461.318 239.614V240.614H462.318V239.614H461.318ZM461.318 245.932H462.318V244.932H461.318V245.932ZM-107.318 245.932V244.932H-108.318V245.932H-107.318ZM461.318 247.511V248.511H462.318V247.511H461.318ZM-107.318 247.511H-108.318V248.511H-107.318V247.511ZM-107.318 253.83V252.83H-108.318V253.83H-107.318ZM461.318 253.83H462.318V252.83H461.318V253.83ZM-107.318 255.409H-108.318V256.409H-107.318V255.409ZM461.318 255.409V256.409H462.318V255.409H461.318ZM461.318 261.727H462.318V260.727H461.318V261.727ZM-107.318 261.727V260.727H-108.318V261.727H-107.318ZM461.318 263.307V264.307H462.318V263.307H461.318ZM-107.318 263.307H-108.318V264.307H-107.318V263.307ZM-107.318 269.625V268.625H-108.318V269.625H-107.318ZM461.318 269.625H462.318V268.625H461.318V269.625ZM-107.318 271.205H-108.318V272.205H-107.318V271.205ZM461.318 271.205V272.205H462.318V271.205H461.318ZM461.318 277.523H462.318V276.523H461.318V277.523ZM-107.318 277.523V276.523H-108.318V277.523H-107.318ZM461.318 279.102V280.102H462.318V279.102H461.318ZM-107.318 279.102H-108.318V280.102H-107.318V279.102ZM-107.318 285.42V284.42H-108.318V285.42H-107.318ZM461.318 285.42H462.318V284.42H461.318V285.42ZM-107.318 287H-108.318V288H-107.318V287ZM461.318 287V288H462.318V287H461.318ZM-107.318 10H461.318V8H-107.318V10ZM-106.318 10.5795V9H-108.318V10.5795H-106.318ZM461.318 9.57955H-107.318V11.5795H461.318V9.57955ZM460.318 9V10.5795H462.318V9H460.318ZM-107.318 17.8977H461.318V15.8977H-107.318V17.8977ZM-106.318 18.4773V16.8977H-108.318V18.4773H-106.318ZM461.318 17.4773H-107.318V19.4773H461.318V17.4773ZM460.318 16.8977V18.4773H462.318V16.8977H460.318ZM461.318 23.7955H-107.318V25.7955H461.318V23.7955ZM462.318 26.375V24.7955H460.318V26.375H462.318ZM-107.318 27.375H461.318V25.375H-107.318V27.375ZM-108.318 24.7955V26.375H-106.318V24.7955H-108.318ZM-107.318 33.6932H461.318V31.6932H-107.318V33.6932ZM-106.318 34.2727V32.6932H-108.318V34.2727H-106.318ZM461.318 33.2727H-107.318V35.2727H461.318V33.2727ZM460.318 32.6932V34.2727H462.318V32.6932H460.318ZM461.318 39.5909H-107.318V41.5909H461.318V39.5909ZM462.318 42.1705V40.5909H460.318V42.1705H462.318ZM-107.318 43.1705H461.318V41.1705H-107.318V43.1705ZM-108.318 40.5909V42.1705H-106.318V40.5909H-108.318ZM-107.318 49.4886H461.318V47.4886H-107.318V49.4886ZM-106.318 50.0682V48.4886H-108.318V50.0682H-106.318ZM461.318 49.0682H-107.318V51.0682H461.318V49.0682ZM460.318 48.4886V50.0682H462.318V48.4886H460.318ZM461.318 55.3864H-107.318V57.3864H461.318V55.3864ZM462.318 57.9659V56.3864H460.318V57.9659H462.318ZM-107.318 58.9659H461.318V56.9659H-107.318V58.9659ZM-108.318 56.3864V57.9659H-106.318V56.3864H-108.318ZM-107.318 65.2841H461.318V63.2841H-107.318V65.2841ZM-106.318 65.8636V64.2841H-108.318V65.8636H-106.318ZM461.318 64.8636H-107.318V66.8636H461.318V64.8636ZM460.318 64.2841V65.8636H462.318V64.2841H460.318ZM461.318 71.1818H-107.318V73.1818H461.318V71.1818ZM462.318 73.7614V72.1818H460.318V73.7614H462.318ZM-107.318 74.7614H461.318V72.7614H-107.318V74.7614ZM-108.318 72.1818V73.7614H-106.318V72.1818H-108.318ZM-107.318 81.0795H461.318V79.0795H-107.318V81.0795ZM-106.318 81.6591V80.0795H-108.318V81.6591H-106.318ZM461.318 80.6591H-107.318V82.6591H461.318V80.6591ZM460.318 80.0795V81.6591H462.318V80.0795H460.318ZM461.318 86.9773H-107.318V88.9773H461.318V86.9773ZM462.318 89.5568V87.9773H460.318V89.5568H462.318ZM-107.318 90.5568H461.318V88.5568H-107.318V90.5568ZM-108.318 87.9773V89.5568H-106.318V87.9773H-108.318ZM-107.318 96.875H461.318V94.875H-107.318V96.875ZM-106.318 97.4545V95.875H-108.318V97.4545H-106.318ZM461.318 96.4545H-107.318V98.4545H461.318V96.4545ZM460.318 95.875V97.4545H462.318V95.875H460.318ZM461.318 102.773H-107.318V104.773H461.318V102.773ZM462.318 105.352V103.773H460.318V105.352H462.318ZM-107.318 106.352H461.318V104.352H-107.318V106.352ZM-108.318 103.773V105.352H-106.318V103.773H-108.318ZM-107.318 112.67H461.318V110.67H-107.318V112.67ZM-106.318 113.25V111.67H-108.318V113.25H-106.318ZM461.318 112.25H-107.318V114.25H461.318V112.25ZM460.318 111.67V113.25H462.318V111.67H460.318ZM461.318 118.568H-107.318V120.568H461.318V118.568ZM462.318 121.148V119.568H460.318V121.148H462.318ZM-107.318 122.148H461.318V120.148H-107.318V122.148ZM-108.318 119.568V121.148H-106.318V119.568H-108.318ZM-107.318 128.466H461.318V126.466H-107.318V128.466ZM-106.318 129.045V127.466H-108.318V129.045H-106.318ZM461.318 128.045H-107.318V130.045H461.318V128.045ZM460.318 127.466V129.045H462.318V127.466H460.318ZM461.318 134.364H-107.318V136.364H461.318V134.364ZM462.318 136.943V135.364H460.318V136.943H462.318ZM-107.318 137.943H461.318V135.943H-107.318V137.943ZM-108.318 135.364V136.943H-106.318V135.364H-108.318ZM-107.318 144.261H461.318V142.261H-107.318V144.261ZM-106.318 144.841V143.261H-108.318V144.841H-106.318ZM461.318 143.841H-107.318V145.841H461.318V143.841ZM460.318 143.261V144.841H462.318V143.261H460.318ZM461.318 150.159H-107.318V152.159H461.318V150.159ZM462.318 152.739V151.159H460.318V152.739H462.318ZM-107.318 153.739H461.318V151.739H-107.318V153.739ZM-108.318 151.159V152.739H-106.318V151.159H-108.318ZM-107.318 160.057H461.318V158.057H-107.318V160.057ZM-106.318 160.636V159.057H-108.318V160.636H-106.318ZM461.318 159.636H-107.318V161.636H461.318V159.636ZM460.318 159.057V160.636H462.318V159.057H460.318ZM461.318 165.955H-107.318V167.955H461.318V165.955ZM462.318 168.534V166.955H460.318V168.534H462.318ZM-107.318 169.534H461.318V167.534H-107.318V169.534ZM-108.318 166.955V168.534H-106.318V166.955H-108.318ZM-107.318 175.852H461.318V173.852H-107.318V175.852ZM-106.318 176.432V174.852H-108.318V176.432H-106.318ZM461.318 175.432H-107.318V177.432H461.318V175.432ZM460.318 174.852V176.432H462.318V174.852H460.318ZM461.318 181.75H-107.318V183.75H461.318V181.75ZM462.318 184.33V182.75H460.318V184.33H462.318ZM-107.318 185.33H461.318V183.33H-107.318V185.33ZM-108.318 182.75V184.33H-106.318V182.75H-108.318ZM-107.318 191.648H461.318V189.648H-107.318V191.648ZM-106.318 192.227V190.648H-108.318V192.227H-106.318ZM461.318 191.227H-107.318V193.227H461.318V191.227ZM460.318 190.648V192.227H462.318V190.648H460.318ZM461.318 197.545H-107.318V199.545H461.318V197.545ZM462.318 200.125V198.545H460.318V200.125H462.318ZM-107.318 201.125H461.318V199.125H-107.318V201.125ZM-108.318 198.545V200.125H-106.318V198.545H-108.318ZM-107.318 207.443H461.318V205.443H-107.318V207.443ZM-106.318 208.023V206.443H-108.318V208.023H-106.318ZM461.318 207.023H-107.318V209.023H461.318V207.023ZM460.318 206.443V208.023H462.318V206.443H460.318ZM461.318 213.341H-107.318V215.341H461.318V213.341ZM462.318 215.92V214.341H460.318V215.92H462.318ZM-107.318 216.92H461.318V214.92H-107.318V216.92ZM-108.318 214.341V215.92H-106.318V214.341H-108.318ZM-107.318 223.239H461.318V221.239H-107.318V223.239ZM-106.318 223.818V222.239H-108.318V223.818H-106.318ZM461.318 222.818H-107.318V224.818H461.318V222.818ZM460.318 222.239V223.818H462.318V222.239H460.318ZM461.318 229.136H-107.318V231.136H461.318V229.136ZM462.318 231.716V230.136H460.318V231.716H462.318ZM-107.318 232.716H461.318V230.716H-107.318V232.716ZM-108.318 230.136V231.716H-106.318V230.136H-108.318ZM-107.318 239.034H461.318V237.034H-107.318V239.034ZM-106.318 239.614V238.034H-108.318V239.614H-106.318ZM461.318 238.614H-107.318V240.614H461.318V238.614ZM460.318 238.034V239.614H462.318V238.034H460.318ZM461.318 244.932H-107.318V246.932H461.318V244.932ZM462.318 247.511V245.932H460.318V247.511H462.318ZM-107.318 248.511H461.318V246.511H-107.318V248.511ZM-108.318 245.932V247.511H-106.318V245.932H-108.318ZM-107.318 254.83H461.318V252.83H-107.318V254.83ZM-106.318 255.409V253.83H-108.318V255.409H-106.318ZM461.318 254.409H-107.318V256.409H461.318V254.409ZM460.318 253.83V255.409H462.318V253.83H460.318ZM461.318 260.727H-107.318V262.727H461.318V260.727ZM462.318 263.307V261.727H460.318V263.307H462.318ZM-107.318 264.307H461.318V262.307H-107.318V264.307ZM-108.318 261.727V263.307H-106.318V261.727H-108.318ZM-107.318 270.625H461.318V268.625H-107.318V270.625ZM-106.318 271.205V269.625H-108.318V271.205H-106.318ZM461.318 270.205H-107.318V272.205H461.318V270.205ZM460.318 269.625V271.205H462.318V269.625H460.318ZM461.318 276.523H-107.318V278.523H461.318V276.523ZM462.318 279.102V277.523H460.318V279.102H462.318ZM-107.318 280.102H461.318V278.102H-107.318V280.102ZM-108.318 277.523V279.102H-106.318V277.523H-108.318ZM-107.318 286.42H461.318V284.42H-107.318V286.42ZM-106.318 287V285.42H-108.318V287H-106.318ZM461.318 286H-107.318V288H461.318V286ZM460.318 285.42V287H462.318V285.42H460.318Z" fill="url(#paint3_linear_11_1200)" mask="url(#path-5-inside-2_11_1200)"/>
</g>
</g>
<mask id="path-7-inside-3_11_1200" fill="white">
<path fill-rule="evenodd" clip-rule="evenodd" d="M70 5H63L53 22H60L70 5ZM75 5H82L72 22H65L75 5ZM94 5H87L77 22H84L94 5ZM99 5H106L96 22H89L99 5ZM110.5 5H117.5L107.5 22H100.5L110.5 5Z"/>
</mask>
<path fill-rule="evenodd" clip-rule="evenodd" d="M70 5H63L53 22H60L70 5ZM75 5H82L72 22H65L75 5ZM94 5H87L77 22H84L94 5ZM99 5H106L96 22H89L99 5ZM110.5 5H117.5L107.5 22H100.5L110.5 5Z" fill="url(#paint4_linear_11_1200)"/>
<path d="M63 5V4H62.4281L62.1381 4.49298L63 5ZM70 5L70.8619 5.50702L71.7484 4H70V5ZM53 22L52.1381 21.493L51.2516 23H53V22ZM60 22V23H60.5719L60.8619 22.507L60 22ZM82 5L82.8619 5.50702L83.7484 4H82V5ZM75 5V4H74.4281L74.1381 4.49298L75 5ZM72 22V23H72.5719L72.8619 22.507L72 22ZM65 22L64.1381 21.493L63.2516 23H65V22ZM87 5V4H86.4281L86.1381 4.49298L87 5ZM94 5L94.8619 5.50702L95.7484 4H94V5ZM77 22L76.1381 21.493L75.2516 23H77V22ZM84 22V23H84.5719L84.8619 22.507L84 22ZM106 5L106.862 5.50702L107.748 4H106V5ZM99 5V4H98.4281L98.1381 4.49298L99 5ZM96 22V23H96.5719L96.8619 22.507L96 22ZM89 22L88.1381 21.493L87.2516 23H89V22ZM117.5 5L118.362 5.50702L119.248 4H117.5V5ZM110.5 5V4H109.928L109.638 4.49298L110.5 5ZM107.5 22V23H108.072L108.362 22.507L107.5 22ZM100.5 22L99.6381 21.493L98.7516 23H100.5V22ZM63 6H70V4H63V6ZM53.8619 22.507L63.8619 5.50702L62.1381 4.49298L52.1381 21.493L53.8619 22.507ZM60 21H53V23H60V21ZM69.1381 4.49298L59.1381 21.493L60.8619 22.507L70.8619 5.50702L69.1381 4.49298ZM82 4H75V6H82V4ZM72.8619 22.507L82.8619 5.50702L81.1381 4.49298L71.1381 21.493L72.8619 22.507ZM65 23H72V21H65V23ZM74.1381 4.49298L64.1381 21.493L65.8619 22.507L75.8619 5.50702L74.1381 4.49298ZM87 6H94V4H87V6ZM77.8619 22.507L87.8619 5.50702L86.1381 4.49298L76.1381 21.493L77.8619 22.507ZM84 21H77V23H84V21ZM93.1381 4.49298L83.1381 21.493L84.8619 22.507L94.8619 5.50702L93.1381 4.49298ZM106 4H99V6H106V4ZM96.8619 22.507L106.862 5.50702L105.138 4.49298L95.1381 21.493L96.8619 22.507ZM89 23H96V21H89V23ZM98.1381 4.49298L88.1381 21.493L89.8619 22.507L99.8619 5.50702L98.1381 4.49298ZM117.5 4H110.5V6H117.5V4ZM108.362 22.507L118.362 5.50702L116.638 4.49298L106.638 21.493L108.362 22.507ZM100.5 23H107.5V21H100.5V23ZM109.638 4.49298L99.6381 21.493L101.362 22.507L111.362 5.50702L109.638 4.49298Z" fill="url(#paint5_linear_11_1200)" mask="url(#path-7-inside-3_11_1200)"/>
<defs>
<linearGradient id="paint0_linear_11_1200" x1="165.5" y1="-21.5412" x2="165.5" y2="300.271" gradientUnits="userSpaceOnUse">
<stop stop-color="#9CDEFF"/>
<stop offset="1" stop-color="#32D8FD"/>
</linearGradient>
<linearGradient id="paint1_linear_11_1200" x1="165.5" y1="-21.5412" x2="165.5" y2="300.271" gradientUnits="userSpaceOnUse">
<stop stop-color="#9CDEFF"/>
<stop offset="1" stop-color="#32D8FD"/>
</linearGradient>
<linearGradient id="paint2_linear_11_1200" x1="461.318" y1="148" x2="-107.318" y2="148" gradientUnits="userSpaceOnUse">
<stop stop-color="white" stop-opacity="0.5"/>
<stop offset="0.495" stop-color="white" stop-opacity="0.2"/>
<stop offset="1" stop-color="white" stop-opacity="0.5"/>
</linearGradient>
<linearGradient id="paint3_linear_11_1200" x1="177" y1="-17.1647" x2="177" y2="300.082" gradientUnits="userSpaceOnUse">
<stop stop-color="#9CDEFF"/>
<stop offset="1" stop-color="#32D8FD"/>
</linearGradient>
<linearGradient id="paint4_linear_11_1200" x1="85.25" y1="3.4" x2="85.25" y2="22.8" gradientUnits="userSpaceOnUse">
<stop stop-color="#9CDEFF"/>
<stop offset="1" stop-color="#32D8FD"/>
</linearGradient>
<linearGradient id="paint5_linear_11_1200" x1="85.25" y1="3.4" x2="85.25" y2="22.8" gradientUnits="userSpaceOnUse">
<stop stop-color="#9CDEFF"/>
<stop offset="1" stop-color="#32D8FD"/>
</linearGradient>
</defs>
</svg>
